<?xml version="1.0" encoding="UTF-8" standalone="no"?>
<svg
   xmlns:dc="http://purl.org/dc/elements/1.1/"
   xmlns:cc="http://creativecommons.org/ns#"
   xmlns:rdf="http://www.w3.org/1999/02/22-rdf-syntax-ns#"
   xmlns:svg="http://www.w3.org/2000/svg"
   xmlns="http://www.w3.org/2000/svg"
   xmlns:sodipodi="http://sodipodi.sourceforge.net/DTD/sodipodi-0.dtd"
   xmlns:inkscape="http://www.inkscape.org/namespaces/inkscape"
   version="1.1"
   id="Layer_1"
   x="0px"
   y="0px"
   width="792px"
   height="612px"
   viewBox="0 0 792 612"
   enable-background="new 0 0 792 612"
   xml:space="preserve"
   sodipodi:docname="Autism_infinity_pride_symbol.svg"
   inkscape:version="1.0.2 (e86c870879, 2021-01-15)"><metadata
   id="metadata8465"><rdf:RDF><cc:Work
       rdf:about=""><dc:format>image/svg+xml</dc:format><dc:type
         rdf:resource="http://purl.org/dc/dcmitype/StillImage" /><dc:title /></cc:Work></rdf:RDF></metadata><defs
   id="defs8463">
	

		<linearGradient
   id="SVGID_1_"
   gradientUnits="userSpaceOnUse"
   x1="1.6406"
   y1="306.05569"
   x2="790.54102"
   y2="306.05569">
			<stop
   offset="0"
   style="stop-color:#FF0000"
   id="stop8429" />
			<stop
   offset="0.2025"
   style="stop-color:#FF7800"
   id="stop8431" />
			<stop
   offset="0.411"
   style="stop-color:#FFFF00"
   id="stop8433" />
			<stop
   offset="0.6258"
   style="stop-color:#00FF00"
   id="stop8435" />
			<stop
   offset="0.7914"
   style="stop-color:#0000FF"
   id="stop8437" />
			<stop
   offset="0.8096"
   style="stop-color:#2100FF"
   id="stop8439" />
			<stop
   offset="0.8499"
   style="stop-color:#6300FF"
   id="stop8441" />
			<stop
   offset="0.8882"
   style="stop-color:#9B00FF"
   id="stop8443" />
			<stop
   offset="0.9234"
   style="stop-color:#C600FF"
   id="stop8445" />
			<stop
   offset="0.9548"
   style="stop-color:#E500FF"
   id="stop8447" />
			<stop
   offset="0.9815"
   style="stop-color:#F800FF"
   id="stop8449" />
			<stop
   offset="1"
   style="stop-color:#FF00FF"
   id="stop8451" />
		</linearGradient>
		
	</defs><sodipodi:namedview
   pagecolor="#ffffff"
   bordercolor="#666666"
   borderopacity="1"
   objecttolerance="10"
   gridtolerance="10"
   guidetolerance="10"
   inkscape:pageopacity="0"
   inkscape:pageshadow="2"
   inkscape:window-width="1920"
   inkscape:window-height="1016"
   id="namedview8461"
   showgrid="false"
   inkscape:zoom="0.64869281"
   inkscape:cx="396"
   inkscape:cy="306"
   inkscape:window-x="0"
   inkscape:window-y="0"
   inkscape:window-maximized="1"
   inkscape:current-layer="Layer_1"
   inkscape:document-rotation="0" />
<path
   fill="url(#SVGID_1_)"
   d="m 409.676,236.807 c 26.988,-55.399 56.553,-96.948 88.691,-124.647 32.138,-27.7 66.852,-41.55 104.139,-41.55 52.557,0 97.034,21.929 133.437,65.786 36.398,43.858 54.599,97.215 54.599,160.071 0,68.184 -19.71,127.045 -59.129,176.585 -39.417,49.539 -86.293,74.309 -140.625,74.309 -32.67,0 -66.409,-14.294 -101.209,-42.88 -34.802,-28.588 -70.492,-71.646 -107.07,-129.176 -27.344,55.398 -57.085,96.948 -89.225,124.646 -32.137,27.7 -66.674,41.551 -103.606,41.551 -52.204,0 -96.594,-21.929 -133.171,-65.787 C 19.929,431.858 1.641,378.501 1.641,315.644 1.641,247.461 21.35,188.6 60.768,139.061 c 39.419,-49.54 86.295,-74.31 140.629,-74.31 32.315,0 65.875,14.382 100.677,43.147 34.801,28.765 70.669,71.734 107.602,128.909 z m -61.259,92.154 -12.252,-17.047 c -41.193,-55.753 -71.734,-92.775 -91.621,-111.063 -19.887,-18.289 -39.595,-27.434 -59.128,-27.434 -28.41,0 -52.646,14.738 -72.71,44.213 -20.065,29.476 -30.097,65.342 -30.097,107.602 0,40.129 11.008,73.599 33.026,100.41 22.018,26.811 49.54,40.218 82.566,40.218 24.858,0 49.806,-11.364 74.841,-34.091 25.037,-22.728 50.161,-56.998 75.375,-102.808 z m 95.35,-45.811 12.785,17.046 c 33.735,46.166 63.122,80.789 88.157,103.874 25.036,23.081 45.724,34.624 62.059,34.624 28.763,0 53.089,-14.739 72.976,-44.213 19.887,-29.476 29.831,-65.344 29.831,-107.602 0,-40.129 -11.009,-73.599 -33.026,-100.412 -22.02,-26.811 -49.539,-40.217 -82.564,-40.217 -25.213,0 -50.339,11.452 -75.375,34.358 -25.037,22.906 -49.985,57.087 -74.843,102.542 z"
   id="path8454"
   style="fill:url(#SVGID_1_)" />
</svg>
